<svg width="700" height="420" viewBox="0 0 700 420" fill="none" xmlns="http://www.w3.org/2000/svg">
<g clip-path="url(#clip0_8_14)">
<rect width="700" height="420" fill="white"/>
<rect width="700" height="420" rx="30" fill="#D0D0D0"/>
<path d="M102.893 370.834H138.131V375.37H102.893V370.834ZM117.635 362.014H123.179V372.85H117.635V362.014ZM105.581 343.996H135.233V348.49H105.581V343.996ZM105.791 359.494H135.107V363.904H105.791V359.494ZM110.873 347.692H116.459V359.998H110.873V347.692ZM124.355 347.692H129.941V359.998H124.355V347.692ZM155.978 343.072H160.808V345.886C160.808 347.566 160.57 349.204 160.094 350.8C159.646 352.368 158.974 353.852 158.078 355.252C157.182 356.652 156.076 357.926 154.76 359.074C153.472 360.194 151.988 361.16 150.308 361.972C148.628 362.784 146.78 363.386 144.764 363.778L142.37 359.116C144.106 358.808 145.688 358.346 147.116 357.73C148.572 357.086 149.846 356.316 150.938 355.42C152.03 354.524 152.954 353.558 153.71 352.522C154.466 351.458 155.026 350.366 155.39 349.246C155.782 348.098 155.978 346.978 155.978 345.886V343.072ZM157.07 343.072H161.942V345.886C161.942 347.006 162.124 348.14 162.488 349.288C162.88 350.436 163.44 351.542 164.168 352.606C164.924 353.642 165.848 354.594 166.94 355.462C168.032 356.33 169.292 357.086 170.72 357.73C172.148 358.346 173.758 358.808 175.55 359.116L173.156 363.778C171.14 363.386 169.292 362.784 167.612 361.972C165.932 361.16 164.434 360.194 163.118 359.074C161.83 357.954 160.724 356.694 159.8 355.294C158.904 353.894 158.218 352.396 157.742 350.8C157.294 349.204 157.07 347.566 157.07 345.886V343.072ZM141.53 370.414H176.768V374.992H141.53V370.414ZM184.282 360.838H211.624V365.248H184.282V360.838ZM180.166 370.75H215.404V375.286H180.166V370.75ZM184.282 343.66H211.33V348.112H189.952V362.056H184.282V343.66ZM188.23 352.228H210.448V356.554H188.23V352.228ZM243.625 340.762H249.253V379.654H243.625V340.762ZM247.825 355.672H254.671V360.25H247.825V355.672ZM233.419 344.794H238.921C238.921 348.686 238.361 352.368 237.241 355.84C236.149 359.312 234.329 362.504 231.781 365.416C229.261 368.3 225.845 370.82 221.533 372.976L218.383 368.734C221.799 366.97 224.613 364.982 226.825 362.77C229.065 360.558 230.717 358.052 231.781 355.252C232.873 352.424 233.419 349.274 233.419 345.802V344.794ZM220.525 344.794H236.317V349.288H220.525V344.794ZM281.592 344.92H286.548V345.886C286.548 347.426 286.212 348.896 285.54 350.296C284.896 351.696 283.944 352.97 282.684 354.118C281.424 355.238 279.842 356.176 277.938 356.932C276.062 357.688 273.892 358.22 271.428 358.528L269.37 354.076C271.05 353.88 272.548 353.586 273.864 353.194C275.208 352.802 276.356 352.34 277.308 351.808C278.288 351.248 279.086 350.646 279.702 350.002C280.346 349.33 280.822 348.644 281.13 347.944C281.438 347.244 281.592 346.558 281.592 345.886V344.92ZM284.322 344.92H289.236V345.886C289.236 346.558 289.39 347.244 289.698 347.944C290.006 348.644 290.482 349.33 291.126 350.002C291.77 350.646 292.568 351.248 293.52 351.808C294.472 352.34 295.606 352.802 296.922 353.194C298.266 353.586 299.778 353.88 301.458 354.076L299.442 358.528C296.95 358.22 294.766 357.688 292.89 356.932C291.014 356.176 289.432 355.238 288.144 354.118C286.884 352.97 285.932 351.71 285.288 350.338C284.644 348.938 284.322 347.454 284.322 345.886V344.92ZM271.05 342.484H299.862V346.894H271.05V342.484ZM272.1 374.572H299.064V379.066H272.1V374.572ZM272.1 367.936H277.686V376.21H272.1V367.936ZM267.816 361.09H303.054V365.542H267.816V361.09ZM282.558 355.756H288.144V362.896H282.558V355.756ZM334.844 340.804H340.178V379.696H334.844V340.804ZM330.224 355.714H336.65V360.25H330.224V355.714ZM326.486 341.434H331.694V377.974H326.486V341.434ZM313.424 346.894H317.666V350.296C317.666 352.704 317.512 355.028 317.204 357.268C316.924 359.48 316.448 361.552 315.776 363.484C315.132 365.388 314.264 367.096 313.172 368.608C312.08 370.12 310.722 371.352 309.098 372.304L305.738 368.062C307.67 366.914 309.196 365.43 310.316 363.61C311.436 361.79 312.234 359.746 312.71 357.478C313.186 355.182 313.424 352.788 313.424 350.296V346.894ZM314.558 346.894H318.8V350.296C318.8 352.564 319.038 354.762 319.514 356.89C320.018 359.018 320.83 360.922 321.95 362.602C323.098 364.282 324.638 365.626 326.57 366.634L323.378 370.876C321.194 369.7 319.458 368.076 318.17 366.004C316.882 363.932 315.958 361.552 315.398 358.864C314.838 356.176 314.558 353.32 314.558 350.296V346.894ZM306.956 344.752H324.638V349.246H306.956V344.752ZM370.037 340.846H375.623V379.738H370.037V340.846ZM374.363 356.008H381.209V360.628H374.363V356.008ZM344.921 346.558H367.601V351.01H344.921V346.558ZM356.345 353.236C358.221 353.236 359.901 353.642 361.385 354.454C362.869 355.238 364.031 356.316 364.871 357.688C365.739 359.06 366.173 360.656 366.173 362.476C366.173 364.296 365.739 365.906 364.871 367.306C364.031 368.678 362.869 369.77 361.385 370.582C359.929 371.366 358.249 371.758 356.345 371.758C354.469 371.758 352.775 371.366 351.263 370.582C349.779 369.77 348.603 368.678 347.735 367.306C346.895 365.906 346.475 364.296 346.475 362.476C346.475 360.656 346.895 359.06 347.735 357.688C348.603 356.316 349.779 355.238 351.263 354.454C352.775 353.642 354.469 353.236 356.345 353.236ZM356.345 357.772C355.449 357.772 354.665 357.954 353.993 358.318C353.321 358.682 352.789 359.214 352.397 359.914C352.005 360.614 351.809 361.468 351.809 362.476C351.809 363.456 352.005 364.31 352.397 365.038C352.789 365.738 353.321 366.284 353.993 366.676C354.665 367.04 355.449 367.222 356.345 367.222C357.213 367.222 357.983 367.04 358.655 366.676C359.327 366.284 359.859 365.738 360.251 365.038C360.643 364.31 360.839 363.456 360.839 362.476C360.839 361.468 360.643 360.614 360.251 359.914C359.859 359.214 359.327 358.682 358.655 358.318C357.983 357.954 357.213 357.772 356.345 357.772ZM353.489 341.476H359.117V348.28H353.489V341.476ZM393.134 346.978H397.586V351.346C397.586 353.586 397.348 355.784 396.872 357.94C396.424 360.096 395.738 362.126 394.814 364.03C393.918 365.906 392.784 367.572 391.412 369.028C390.04 370.456 388.444 371.59 386.624 372.43L383.432 368.02C385.056 367.264 386.47 366.284 387.674 365.08C388.906 363.876 389.914 362.532 390.698 361.048C391.51 359.536 392.112 357.954 392.504 356.302C392.924 354.622 393.134 352.97 393.134 351.346V346.978ZM394.352 346.978H398.762V351.346C398.762 352.886 398.958 354.454 399.35 356.05C399.77 357.618 400.372 359.116 401.156 360.544C401.94 361.944 402.934 363.204 404.138 364.324C405.342 365.444 406.77 366.34 408.422 367.012L405.356 371.464C403.508 370.652 401.898 369.56 400.526 368.188C399.154 366.816 398.006 365.234 397.082 363.442C396.158 361.65 395.472 359.732 395.024 357.688C394.576 355.616 394.352 353.502 394.352 351.346V346.978ZM384.986 344.542H406.826V349.162H384.986V344.542ZM410.438 340.846H416.024V379.738H410.438V340.846ZM443.407 342.694C445.423 342.694 447.201 343.086 448.741 343.87C450.309 344.654 451.541 345.732 452.437 347.104C453.361 348.448 453.823 350.002 453.823 351.766C453.823 353.53 453.361 355.098 452.437 356.47C451.541 357.842 450.309 358.92 448.741 359.704C447.201 360.488 445.423 360.88 443.407 360.88C441.447 360.88 439.683 360.488 438.115 359.704C436.575 358.92 435.343 357.842 434.419 356.47C433.523 355.098 433.075 353.53 433.075 351.766C433.075 350.002 433.523 348.448 434.419 347.104C435.343 345.732 436.575 344.654 438.115 343.87C439.683 343.086 441.447 342.694 443.407 342.694ZM443.449 347.23C442.497 347.23 441.643 347.412 440.887 347.776C440.131 348.112 439.529 348.63 439.081 349.33C438.661 350.002 438.451 350.814 438.451 351.766C438.451 352.718 438.661 353.53 439.081 354.202C439.529 354.874 440.131 355.392 440.887 355.756C441.643 356.12 442.497 356.302 443.449 356.302C444.401 356.302 445.241 356.12 445.969 355.756C446.725 355.392 447.313 354.874 447.733 354.202C448.181 353.53 448.405 352.718 448.405 351.766C448.405 350.814 448.181 350.002 447.733 349.33C447.313 348.63 446.725 348.112 445.969 347.776C445.241 347.412 444.401 347.23 443.449 347.23ZM457.813 340.846H463.399V359.956H457.813V340.846ZM461.215 348.868H468.565V353.446H461.215V348.868ZM436.225 374.236H438.409C439.529 374.236 440.607 374.208 441.643 374.152C442.707 374.096 443.729 373.984 444.709 373.816C445.717 373.62 446.697 373.354 447.649 373.018L448.447 377.428C447.383 377.792 446.319 378.058 445.255 378.226C444.191 378.422 443.099 378.548 441.979 378.604C440.887 378.688 439.697 378.73 438.409 378.73H436.225V374.236ZM436.225 363.694H441.643V375.622H436.225V363.694ZM447.103 363.82H466.507V367.81H447.103V363.82ZM456.805 368.818C459.017 368.818 460.823 369.322 462.223 370.33C463.623 371.31 464.323 372.626 464.323 374.278C464.323 375.986 463.623 377.33 462.223 378.31C460.823 379.29 459.017 379.78 456.805 379.78C454.593 379.78 452.787 379.29 451.387 378.31C449.987 377.33 449.287 375.986 449.287 374.278C449.287 372.626 449.987 371.31 451.387 370.33C452.787 369.322 454.593 368.818 456.805 368.818ZM456.805 372.598C456.077 372.598 455.461 372.738 454.957 373.018C454.481 373.298 454.243 373.718 454.243 374.278C454.243 374.866 454.481 375.3 454.957 375.58C455.461 375.86 456.077 376 456.805 376C457.533 376 458.135 375.86 458.611 375.58C459.115 375.3 459.367 374.866 459.367 374.278C459.367 373.718 459.115 373.298 458.611 373.018C458.135 372.738 457.533 372.598 456.805 372.598ZM454.117 361.048H459.535V366.844H454.117V361.048ZM475.533 364.114H481.077V367.39H496.659V364.114H502.161V379.318H475.533V364.114ZM481.077 371.59V374.95H496.659V371.59H481.077ZM471.417 357.814H506.613V362.182H471.417V357.814ZM486.159 341.224H490.947V342.4C490.947 343.772 490.709 345.074 490.233 346.306C489.785 347.538 489.127 348.686 488.259 349.75C487.391 350.814 486.313 351.78 485.025 352.648C483.765 353.488 482.309 354.202 480.657 354.79C479.005 355.35 477.171 355.77 475.155 356.05L473.139 351.724C474.903 351.528 476.485 351.206 477.885 350.758C479.285 350.31 480.503 349.778 481.539 349.162C482.575 348.518 483.429 347.832 484.101 347.104C484.801 346.348 485.319 345.578 485.655 344.794C485.991 343.982 486.159 343.184 486.159 342.4V341.224ZM487.083 341.224H491.871V342.4C491.871 343.184 492.039 343.982 492.375 344.794C492.711 345.578 493.215 346.348 493.887 347.104C494.587 347.832 495.455 348.518 496.491 349.162C497.527 349.778 498.745 350.31 500.145 350.758C501.573 351.206 503.155 351.528 504.891 351.724L502.875 356.05C500.859 355.77 499.025 355.35 497.373 354.79C495.749 354.202 494.293 353.488 493.005 352.648C491.717 351.78 490.639 350.814 489.771 349.75C488.903 348.686 488.231 347.538 487.755 346.306C487.307 345.046 487.083 343.744 487.083 342.4V341.224ZM537.018 340.804H542.562V379.696H537.018V340.804ZM512.112 344.5H517.698V368.692H512.112V344.5ZM512.112 365.374H515.556C518.412 365.374 521.394 365.262 524.502 365.038C527.61 364.786 530.774 364.338 533.994 363.694L534.582 368.356C531.278 369.056 528.016 369.532 524.796 369.784C521.604 370.008 518.524 370.12 515.556 370.12H512.112V365.374ZM573.555 340.762H579.183V379.78H573.555V340.762ZM577.965 355.168H584.811V359.788H577.965V355.168ZM550.203 365.836H553.479C555.691 365.836 557.763 365.808 559.695 365.752C561.627 365.668 563.503 365.542 565.323 365.374C567.143 365.178 569.005 364.912 570.909 364.576L571.455 369.196C569.495 369.532 567.563 369.798 565.659 369.994C563.783 370.19 561.851 370.316 559.863 370.372C557.875 370.428 555.747 370.456 553.479 370.456H550.203V365.836ZM550.203 344.374H568.347V348.868H555.789V368.02H550.203V344.374ZM591.748 376.328C590.843 376.328 590.067 376.01 589.421 375.374C588.775 374.737 588.456 373.962 588.466 373.047C588.456 372.152 588.775 371.386 589.421 370.75C590.067 370.114 590.843 369.795 591.748 369.795C592.623 369.795 593.383 370.114 594.03 370.75C594.686 371.386 595.019 372.152 595.029 373.047C595.019 373.653 594.86 374.205 594.552 374.702C594.253 375.2 593.856 375.597 593.358 375.896C592.871 376.184 592.334 376.328 591.748 376.328Z" fill="white"/>
<path d="M369.2 296C323.055 296 299.982 296 283.975 283.981C279.445 280.58 275.42 276.555 272.019 272.025C260 256.018 260 232.945 260 186.8V170.6C260 147.527 260 135.991 266.009 127.987C267.71 125.723 269.723 123.71 271.987 122.009C279.991 116 291.527 116 314.6 116H330.8C376.945 116 400.018 116 416.025 128.019C420.555 131.42 424.58 135.445 427.981 139.975C440 155.982 440 179.055 440 225.2V241.4C440 264.473 440 276.009 433.991 284.013C432.29 286.277 430.277 288.29 428.013 289.991C420.009 296 408.473 296 385.4 296H369.2Z" fill="#8F8F8F"/>
<path fill-rule="evenodd" clip-rule="evenodd" d="M323.678 162L306 179.678L332.517 206.194L306 232.711L323.678 250.388L350.194 223.872L376.711 250.388L394.388 232.711L367.872 206.194L394.388 179.678L376.711 162L350.194 188.517L323.678 162Z" fill="#D0D0D0"/>
</g>
<defs>
<clipPath id="clip0_8_14">
<rect width="700" height="420" fill="white"/>
</clipPath>
</defs>
</svg>
